<svg width="24" height="24" viewBox="0 0 24 24" fill="none" xmlns="http://www.w3.org/2000/svg">
<path d="M22.6421 10.4053C22.5628 10.0289 22.2987 9.71772 21.9399 9.57801L20.6818 9.08902V10.3826L20.92 10.4752C21.0275 10.5172 21.1068 10.6106 21.1303 10.7232C21.1539 10.8362 21.1194 10.954 21.0377 11.0356L12.9642 19.1086C12.8044 19.2679 12.5658 19.3182 12.355 19.2365L10.5607 18.5387V19.8323L11.8201 20.3221C12.5359 20.6003 13.3483 20.4296 13.8915 19.8865L22.3328 11.4454C22.6048 11.1734 22.7214 10.7821 22.6421 10.4053Z" fill="#1B9CFC"/>
<path d="M2.62156 13.8201C2.67806 13.0329 2.93085 12.0015 3.80762 12.0501L11.8158 15.1647C12.5337 15.4438 13.3484 15.2711 13.8916 14.7248L21.6319 6.93362C21.9027 6.66121 22.0181 6.27034 21.9384 5.89476C21.8588 5.51881 21.595 5.20836 21.2371 5.0694L13.2777 1.97407C12.5599 1.69499 11.7448 1.8677 11.202 2.41402L2.2354 11.4391C1.5262 12.0227 1.3335 13.111 1.3335 14.0776C1.3335 15.0442 1.39787 16.2044 2.49364 16.6553L2.2354 16.5948L4.64961 17.5337V16.6694C4.64961 16.5289 4.66711 16.3916 4.69574 16.2578L3.07326 15.6267C2.55723 15.4312 2.55681 14.7291 2.62156 13.8201Z" fill="#1B9CFC"/>
<path d="M5.96039 16.0274C5.79006 16.1985 5.69452 16.4292 5.69452 16.6695V20.6726L7.39545 20.3084L9.51575 22.1576V18.1557C9.51575 17.9143 9.6115 17.6836 9.78183 17.5132L10.4598 16.8351L6.6388 15.3492L5.96039 16.0274Z" fill="#1B9CFC"/>
</svg>
